<svg width="24" height="24" viewBox="0 0 24 24" fill="none" xmlns="http://www.w3.org/2000/svg">
<path d="M7 18.25C7.35417 18.25 7.65104 18.1302 7.89062 17.8906C8.13021 17.651 8.25 17.3542 8.25 17C8.25 16.6458 8.13021 16.349 7.89062 16.1094C7.65104 15.8698 7.35417 15.75 7 15.75C6.64583 15.75 6.34896 15.8698 6.10938 16.1094C5.86979 16.349 5.75 16.6458 5.75 17C5.75 17.3542 5.86979 17.651 6.10938 17.8906C6.34896 18.1302 6.64583 18.25 7 18.25ZM7 13.25C7.35417 13.25 7.65104 13.1302 7.89062 12.8906C8.13021 12.651 8.25 12.3542 8.25 12C8.25 11.6458 8.13021 11.349 7.89062 11.1094C7.65104 10.8698 7.35417 10.75 7 10.75C6.64583 10.75 6.34896 10.8698 6.10938 11.1094C5.86979 11.349 5.75 11.6458 5.75 12C5.75 12.3542 5.86979 12.651 6.10938 12.8906C6.34896 13.1302 6.64583 13.25 7 13.25ZM7 8.25C7.35417 8.25 7.65104 8.13021 7.89062 7.89062C8.13021 7.65104 8.25 7.35417 8.25 7C8.25 6.64583 8.13021 6.34896 7.89062 6.10938C7.65104 5.86979 7.35417 5.75 7 5.75C6.64583 5.75 6.34896 5.86979 6.10938 6.10938C5.86979 6.34896 5.75 6.64583 5.75 7C5.75 7.35417 5.86979 7.65104 6.10938 7.89062C6.34896 8.13021 6.64583 8.25 7 8.25ZM10.75 18.25H18.25V15.75H10.75V18.25ZM10.75 13.25H18.25V10.75H10.75V13.25ZM10.75 8.25H18.25V5.75H10.75V8.25ZM3.25 23.25C2.5625 23.25 1.97396 23.0052 1.48438 22.5156C0.994792 22.026 0.75 21.4375 0.75 20.75V3.25C0.75 2.5625 0.994792 1.97396 1.48438 1.48438C1.97396 0.994792 2.5625 0.75 3.25 0.75H20.75C21.4375 0.75 22.026 0.994792 22.5156 1.48438C23.0052 1.97396 23.25 2.5625 23.25 3.25V20.75C23.25 21.4375 23.0052 22.026 22.5156 22.5156C22.026 23.0052 21.4375 23.25 20.75 23.25H3.25ZM3.25 20.75H20.75V3.25H3.25V20.75Z" fill="#4ECDC4"/>
</svg>
