<svg width="22" height="16" viewBox="0 0 22 16" fill="none" xmlns="http://www.w3.org/2000/svg">
<path d="M12.9446 8.97228C12.1344 8.97228 11.4457 8.68871 10.8786 8.12158C10.3115 7.55445 10.0279 6.86579 10.0279 6.05561C10.0279 5.24542 10.3115 4.55677 10.8786 3.98964C11.4457 3.42251 12.1344 3.13894 12.9446 3.13894C13.7547 3.13894 14.4434 3.42251 15.0105 3.98964C15.5777 4.55677 15.8612 5.24542 15.8612 6.05561C15.8612 6.86579 15.5777 7.55445 15.0105 8.12158C14.4434 8.68871 13.7547 8.97228 12.9446 8.97228ZM6.139 11.8889C5.60428 11.8889 5.14652 11.6985 4.76573 11.3178C4.38495 10.937 4.19455 10.4792 4.19455 9.9445V2.16672C4.19455 1.632 4.38495 1.17424 4.76573 0.793457C5.14652 0.41267 5.60428 0.222276 6.139 0.222276H19.7501C20.2848 0.222276 20.7426 0.41267 21.1234 0.793457C21.5042 1.17424 21.6946 1.632 21.6946 2.16672V9.9445C21.6946 10.4792 21.5042 10.937 21.1234 11.3178C20.7426 11.6985 20.2848 11.8889 19.7501 11.8889H6.139ZM8.08344 9.9445H17.8057C17.8057 9.40978 17.9961 8.95202 18.3768 8.57123C18.7576 8.19045 19.2154 8.00005 19.7501 8.00005V4.11117C19.2154 4.11117 18.7576 3.92077 18.3768 3.53998C17.9961 3.1592 17.8057 2.70144 17.8057 2.16672H8.08344C8.08344 2.70144 7.89305 3.1592 7.51226 3.53998C7.13147 3.92077 6.67372 4.11117 6.139 4.11117V8.00005C6.67372 8.00005 7.13147 8.19045 7.51226 8.57123C7.89305 8.95202 8.08344 9.40978 8.08344 9.9445ZM18.7779 15.7778H2.25011C1.71539 15.7778 1.25763 15.5874 0.876845 15.2067C0.496058 14.8259 0.305664 14.3681 0.305664 13.8334V3.13894H2.25011V13.8334H18.7779V15.7778Z" fill="#64748B"/>
</svg>
