<svg width="40" height="40" viewBox="0 0 40 40" fill="none" xmlns="http://www.w3.org/2000/svg">
<rect width="40" height="40" rx="20" fill="#EAB308" fill-opacity="0.1"/>
<path d="M26.8057 15.6249C27.0811 15.6249 27.312 15.5318 27.4984 15.3454C27.6847 15.1591 27.7779 14.9282 27.7779 14.6527C27.7779 14.3773 27.6847 14.1464 27.4984 13.96C27.312 13.7737 27.0811 13.6805 26.8057 13.6805C26.5302 13.6805 26.2993 13.7737 26.113 13.96C25.9266 14.1464 25.8334 14.3773 25.8334 14.6527C25.8334 14.9282 25.9266 15.1591 26.113 15.3454C26.2993 15.5318 26.5302 15.6249 26.8057 15.6249ZM22.9168 15.6249C23.1922 15.6249 23.4231 15.5318 23.6095 15.3454C23.7958 15.1591 23.889 14.9282 23.889 14.6527C23.889 14.3773 23.7958 14.1464 23.6095 13.96C23.4231 13.7737 23.1922 13.6805 22.9168 13.6805C22.6413 13.6805 22.4104 13.7737 22.2241 13.96C22.0377 14.1464 21.9446 14.3773 21.9446 14.6527C21.9446 14.9282 22.0377 15.1591 22.2241 15.3454C22.4104 15.5318 22.6413 15.6249 22.9168 15.6249ZM22.4307 18.9305H27.2918C27.2918 18.3634 27.0447 17.9137 26.5505 17.5815C26.0562 17.2494 25.4932 17.0833 24.8612 17.0833C24.2293 17.0833 23.6662 17.2494 23.172 17.5815C22.6778 17.9137 22.4307 18.3634 22.4307 18.9305ZM15.139 29.7222C13.5186 29.7222 12.1413 29.155 11.0071 28.0208C9.87279 26.8865 9.30566 25.5092 9.30566 23.8888V17.0833H20.9723V23.8888C20.9723 25.5092 20.4052 26.8865 19.2709 28.0208C18.1367 29.155 16.7594 29.7222 15.139 29.7222ZM15.139 27.7777C16.2084 27.7777 17.124 27.3969 17.8855 26.6354C18.6471 25.8738 19.0279 24.9583 19.0279 23.8888V19.0277H11.2501V23.8888C11.2501 24.9583 11.6309 25.8738 12.3925 26.6354C13.154 27.3969 14.0696 27.7777 15.139 27.7777ZM24.8612 22.9166C24.4399 22.9166 24.0227 22.8721 23.6095 22.7829C23.1963 22.6938 22.8033 22.5601 22.4307 22.3819V20.0972C22.7871 20.3726 23.172 20.5873 23.5852 20.7413C23.9984 20.8952 24.4237 20.9722 24.8612 20.9722C25.9307 20.9722 26.8462 20.5914 27.6077 19.8298C28.3693 19.0682 28.7501 18.1527 28.7501 17.0833V12.2222H20.9723V15.6249H19.0279V10.2777H30.6946V17.0833C30.6946 18.7036 30.1274 20.081 28.9932 21.2152C27.8589 22.3495 26.4816 22.9166 24.8612 22.9166ZM13.1946 22.4305C13.47 22.4305 13.7009 22.3373 13.8873 22.151C14.0736 21.9646 14.1668 21.7337 14.1668 21.4583C14.1668 21.1828 14.0736 20.9519 13.8873 20.7656C13.7009 20.5792 13.47 20.4861 13.1946 20.4861C12.9191 20.4861 12.6882 20.5792 12.5018 20.7656C12.3155 20.9519 12.2223 21.1828 12.2223 21.4583C12.2223 21.7337 12.3155 21.9646 12.5018 22.151C12.6882 22.3373 12.9191 22.4305 13.1946 22.4305ZM17.0834 22.4305C17.3589 22.4305 17.5898 22.3373 17.7762 22.151C17.9625 21.9646 18.0557 21.7337 18.0557 21.4583C18.0557 21.1828 17.9625 20.9519 17.7762 20.7656C17.5898 20.5792 17.3589 20.4861 17.0834 20.4861C16.808 20.4861 16.5771 20.5792 16.3907 20.7656C16.2044 20.9519 16.1112 21.1828 16.1112 21.4583C16.1112 21.7337 16.2044 21.9646 16.3907 22.151C16.5771 22.3373 16.808 22.4305 17.0834 22.4305ZM15.139 25.7361C15.7709 25.7361 16.334 25.57 16.8282 25.2378C17.3224 24.9056 17.5696 24.456 17.5696 23.8888H12.7084C12.7084 24.456 12.9555 24.9056 13.4498 25.2378C13.944 25.57 14.5071 25.7361 15.139 25.7361Z" fill="#EAB308"/>
</svg>
