<svg width="40" height="40" viewBox="0 0 40 40" fill="none" xmlns="http://www.w3.org/2000/svg">
<rect width="40" height="40" rx="20" fill="#EC4899" fill-opacity="0.1"/>
<path d="M15.1393 29.7222V20.8263C14.3129 20.5995 13.6202 20.1458 13.0612 19.4652C12.5022 18.7847 12.2227 17.9907 12.2227 17.0833V10.2777H14.1671V17.0833H15.1393V10.2777H17.0838V17.0833H18.056V10.2777H20.0004V17.0833C20.0004 17.9907 19.7209 18.7847 19.1619 19.4652C18.6029 20.1458 17.9102 20.5995 17.0838 20.8263V29.7222H15.1393ZM24.8615 29.7222V21.9444H21.9449V15.1388C21.9449 13.7939 22.4188 12.6475 23.3668 11.6996C24.3147 10.7517 25.4611 10.2777 26.806 10.2777V29.7222H24.8615Z" fill="#EC4899"/>
</svg>
