<svg width="40" height="40" viewBox="0 0 40 40" fill="none" xmlns="http://www.w3.org/2000/svg">
<rect width="40" height="40" rx="20" fill="#6366F1" fill-opacity="0.1"/>
<path d="M25.8339 20.9723V19.0278H29.7228V20.9723H25.8339ZM27.0005 27.7778L23.8894 25.4445L25.0561 23.8889L28.1672 26.2223L27.0005 27.7778ZM25.0561 16.1112L23.8894 14.5556L27.0005 12.2223L28.1672 13.7778L25.0561 16.1112ZM13.195 26.8056V22.9167H12.2228C11.688 22.9167 11.2303 22.7263 10.8495 22.3455C10.4687 21.9648 10.2783 21.507 10.2783 20.9723V19.0278C10.2783 18.4931 10.4687 18.0354 10.8495 17.6546C11.2303 17.2738 11.688 17.0834 12.2228 17.0834H16.1117L20.9728 14.1667V25.8334L16.1117 22.9167H15.1394V26.8056H13.195ZM19.0283 22.382V17.6181L16.6464 19.0278H12.2228V20.9723H16.6464L19.0283 22.382ZM21.945 23.257V16.7431C22.3825 17.132 22.7349 17.606 23.0023 18.165C23.2696 18.724 23.4033 19.3357 23.4033 20.0001C23.4033 20.6644 23.2696 21.2761 23.0023 21.8351C22.7349 22.3942 22.3825 22.8681 21.945 23.257Z" fill="#6366F1"/>
</svg>
