<svg width="28" height="20" viewBox="0 0 28 20" fill="none" xmlns="http://www.w3.org/2000/svg">
<path d="M16.5 11.25C15.4583 11.25 14.5729 10.8854 13.8438 10.1562C13.1146 9.42708 12.75 8.54167 12.75 7.5C12.75 6.45833 13.1146 5.57292 13.8438 4.84375C14.5729 4.11458 15.4583 3.75 16.5 3.75C17.5417 3.75 18.4271 4.11458 19.1562 4.84375C19.8854 5.57292 20.25 6.45833 20.25 7.5C20.25 8.54167 19.8854 9.42708 19.1562 10.1562C18.4271 10.8854 17.5417 11.25 16.5 11.25ZM7.75 15C7.0625 15 6.47396 14.7552 5.98438 14.2656C5.49479 13.776 5.25 13.1875 5.25 12.5V2.5C5.25 1.8125 5.49479 1.22396 5.98438 0.734375C6.47396 0.244792 7.0625 0 7.75 0H25.25C25.9375 0 26.526 0.244792 27.0156 0.734375C27.5052 1.22396 27.75 1.8125 27.75 2.5V12.5C27.75 13.1875 27.5052 13.776 27.0156 14.2656C26.526 14.7552 25.9375 15 25.25 15H7.75ZM10.25 12.5H22.75C22.75 11.8125 22.9948 11.224 23.4844 10.7344C23.974 10.2448 24.5625 10 25.25 10V5C24.5625 5 23.974 4.75521 23.4844 4.26562C22.9948 3.77604 22.75 3.1875 22.75 2.5H10.25C10.25 3.1875 10.0052 3.77604 9.51562 4.26562C9.02604 4.75521 8.4375 5 7.75 5V10C8.4375 10 9.02604 10.2448 9.51562 10.7344C10.0052 11.224 10.25 11.8125 10.25 12.5ZM24 20H2.75C2.0625 20 1.47396 19.7552 0.984375 19.2656C0.494792 18.776 0.25 18.1875 0.25 17.5V3.75H2.75V17.5H24V20Z" fill="#F0AAFF"/>
</svg>
