<svg width="40" height="40" viewBox="0 0 40 40" fill="none" xmlns="http://www.w3.org/2000/svg">
<rect width="40" height="40" rx="20" fill="#14B8A6" fill-opacity="0.1"/>
<path d="M20.0005 29.7222C18.6718 29.7222 17.4161 29.467 16.2332 28.9565C15.0503 28.4461 14.0173 27.7494 13.1342 26.8663C12.2511 25.9832 11.5544 24.9502 11.0439 23.7673C10.5335 22.5844 10.2783 21.3286 10.2783 19.9999C10.2783 18.655 10.5416 17.3911 11.0683 16.2083C11.5949 15.0254 12.3078 13.9965 13.2071 13.1215C14.1064 12.2465 15.1556 11.5538 16.3547 11.0433C17.5538 10.5329 18.8339 10.2777 20.195 10.2777C21.4913 10.2777 22.7147 10.5005 23.8651 10.9461C25.0156 11.3917 26.0243 12.0075 26.8912 12.7933C27.7581 13.5792 28.4467 14.5109 28.9571 15.5885C29.4676 16.666 29.7228 17.8286 29.7228 19.0763C29.7228 20.9398 29.1556 22.3697 28.0214 23.3663C26.8871 24.3628 25.5098 24.8611 23.8894 24.8611H22.0908C21.945 24.8611 21.8437 24.9016 21.787 24.9826C21.7303 25.0636 21.7019 25.1527 21.7019 25.2499C21.7019 25.4444 21.8235 25.7239 22.0665 26.0885C22.3096 26.4531 22.4311 26.8703 22.4311 27.3402C22.4311 28.1504 22.2083 28.7499 21.7627 29.1388C21.3171 29.5277 20.7297 29.7222 20.0005 29.7222ZM14.6533 20.9722C15.0746 20.9722 15.423 20.8344 15.6985 20.559C15.9739 20.2835 16.1117 19.9351 16.1117 19.5138C16.1117 19.0925 15.9739 18.7442 15.6985 18.4687C15.423 18.1932 15.0746 18.0555 14.6533 18.0555C14.232 18.0555 13.8836 18.1932 13.6082 18.4687C13.3327 18.7442 13.195 19.0925 13.195 19.5138C13.195 19.9351 13.3327 20.2835 13.6082 20.559C13.8836 20.8344 14.232 20.9722 14.6533 20.9722ZM17.57 17.0833C17.9913 17.0833 18.3397 16.9455 18.6151 16.6701C18.8906 16.3946 19.0283 16.0462 19.0283 15.6249C19.0283 15.2036 18.8906 14.8553 18.6151 14.5798C18.3397 14.3043 17.9913 14.1666 17.57 14.1666C17.1487 14.1666 16.8003 14.3043 16.5248 14.5798C16.2494 14.8553 16.1117 15.2036 16.1117 15.6249C16.1117 16.0462 16.2494 16.3946 16.5248 16.6701C16.8003 16.9455 17.1487 17.0833 17.57 17.0833ZM22.4311 17.0833C22.8524 17.0833 23.2008 16.9455 23.4762 16.6701C23.7517 16.3946 23.8894 16.0462 23.8894 15.6249C23.8894 15.2036 23.7517 14.8553 23.4762 14.5798C23.2008 14.3043 22.8524 14.1666 22.4311 14.1666C22.0098 14.1666 21.6614 14.3043 21.386 14.5798C21.1105 14.8553 20.9728 15.2036 20.9728 15.6249C20.9728 16.0462 21.1105 16.3946 21.386 16.6701C21.6614 16.9455 22.0098 17.0833 22.4311 17.0833ZM25.3478 20.9722C25.7691 20.9722 26.1174 20.8344 26.3929 20.559C26.6684 20.2835 26.8061 19.9351 26.8061 19.5138C26.8061 19.0925 26.6684 18.7442 26.3929 18.4687C26.1174 18.1932 25.7691 18.0555 25.3478 18.0555C24.9265 18.0555 24.5781 18.1932 24.3026 18.4687C24.0272 18.7442 23.8894 19.0925 23.8894 19.5138C23.8894 19.9351 24.0272 20.2835 24.3026 20.559C24.5781 20.8344 24.9265 20.9722 25.3478 20.9722ZM20.0005 27.7777C20.1464 27.7777 20.2639 27.7372 20.353 27.6562C20.4421 27.5752 20.4867 27.4699 20.4867 27.3402C20.4867 27.1134 20.3651 26.846 20.1221 26.5381C19.879 26.2303 19.7575 25.7685 19.7575 25.1527C19.7575 24.4722 19.9924 23.9293 20.4623 23.5243C20.9323 23.1192 21.5075 22.9166 22.188 22.9166H23.8894C24.9589 22.9166 25.8744 22.6047 26.636 21.9808C27.3975 21.357 27.7783 20.3888 27.7783 19.0763C27.7783 17.1157 27.0289 15.4832 25.5301 14.1788C24.0312 12.8744 22.2529 12.2222 20.195 12.2222C17.9913 12.2222 16.1117 12.9756 14.5561 14.4826C13.0005 15.9895 12.2228 17.8286 12.2228 19.9999C12.2228 22.155 12.9803 23.9901 14.4953 25.5052C16.0104 27.0202 17.8455 27.7777 20.0005 27.7777Z" fill="#14B8A6"/>
</svg>
