<svg width="40" height="40" viewBox="0 0 40 40" fill="none" xmlns="http://www.w3.org/2000/svg">
<rect width="40" height="40" rx="20" fill="#EF4444" fill-opacity="0.1"/>
<path d="M12.2228 27.7778C11.688 27.7778 11.2303 27.5874 10.8495 27.2067C10.4687 26.8259 10.2783 26.3681 10.2783 25.8334V14.1667C10.2783 13.632 10.4687 13.1742 10.8495 12.7935C11.2303 12.4127 11.688 12.2223 12.2228 12.2223H23.8894C24.4242 12.2223 24.8819 12.4127 25.2627 12.7935C25.6435 13.1742 25.8339 13.632 25.8339 14.1667V18.5417L29.7228 14.6528V25.3473L25.8339 21.4584V25.8334C25.8339 26.3681 25.6435 26.8259 25.2627 27.2067C24.8819 27.5874 24.4242 27.7778 23.8894 27.7778H12.2228ZM12.2228 25.8334H23.8894V14.1667H12.2228V25.8334Z" fill="#EF4444"/>
</svg>
