<svg width="40" height="40" viewBox="0 0 40 40" fill="none" xmlns="http://www.w3.org/2000/svg">
<rect width="40" height="40" rx="20" fill="#A855F7" fill-opacity="0.1"/>
<path d="M10.2783 29.7222L15.1394 16.1111L23.8894 24.8611L10.2783 29.7222ZM13.4867 26.5138L20.3408 24.0833L15.9172 19.6597L13.4867 26.5138ZM22.4797 20.5347L21.4589 19.5138L26.9033 14.0694C27.4218 13.5509 28.0457 13.2916 28.7748 13.2916C29.504 13.2916 30.1279 13.5509 30.6464 14.0694L31.2297 14.6527L30.2089 15.6736L29.6255 15.0902C29.3987 14.8634 29.1151 14.7499 28.7748 14.7499C28.4346 14.7499 28.151 14.8634 27.9242 15.0902L22.4797 20.5347ZM18.5908 16.6458L17.57 15.6249L18.1533 15.0416C18.3802 14.8148 18.4936 14.5393 18.4936 14.2152C18.4936 13.8911 18.3802 13.6157 18.1533 13.3888L17.5214 12.7569L18.5422 11.7361L19.1742 12.368C19.6927 12.8865 19.9519 13.5023 19.9519 14.2152C19.9519 14.9282 19.6927 15.5439 19.1742 16.0624L18.5908 16.6458ZM20.5353 18.5902L19.5144 17.5694L23.0144 14.0694C23.2413 13.8425 23.3547 13.559 23.3547 13.2187C23.3547 12.8784 23.2413 12.5949 23.0144 12.368L21.4589 10.8124L22.4797 9.79161L24.0353 11.3472C24.5538 11.8657 24.813 12.4895 24.813 13.2187C24.813 13.9479 24.5538 14.5717 24.0353 15.0902L20.5353 18.5902ZM24.4242 22.4791L23.4033 21.4583L24.9589 19.9027C25.4774 19.3842 26.1012 19.1249 26.8304 19.1249C27.5596 19.1249 28.1834 19.3842 28.7019 19.9027L30.2575 21.4583L29.2367 22.4791L27.6811 20.9236C27.4542 20.6967 27.1707 20.5833 26.8304 20.5833C26.4901 20.5833 26.2066 20.6967 25.9797 20.9236L24.4242 22.4791Z" fill="#A855F7"/>
</svg>
