<svg width="40" height="40" viewBox="0 0 40 40" fill="none" xmlns="http://www.w3.org/2000/svg">
<rect width="40" height="40" rx="20" fill="#F97316" fill-opacity="0.1"/>
<path d="M12.2227 28.75V26.8056H27.7782V28.75H12.2227ZM16.1115 24.8611C15.0421 24.8611 14.1266 24.4803 13.365 23.7187C12.6034 22.9572 12.2227 22.0417 12.2227 20.9722V11.25H27.7782C28.3129 11.25 28.7707 11.4404 29.1515 11.8212C29.5323 12.202 29.7227 12.6597 29.7227 13.1944V16.1111C29.7227 16.6458 29.5323 17.1036 29.1515 17.4844C28.7707 17.8652 28.3129 18.0556 27.7782 18.0556H25.8338V20.9722C25.8338 22.0417 25.453 22.9572 24.6914 23.7187C23.9298 24.4803 23.0143 24.8611 21.9449 24.8611H16.1115ZM16.1115 22.9167H21.9449C22.4796 22.9167 22.9374 22.7263 23.3181 22.3455C23.6989 21.9647 23.8893 21.5069 23.8893 20.9722V13.1944H14.1671V20.9722C14.1671 21.5069 14.3575 21.9647 14.7383 22.3455C15.1191 22.7263 15.5768 22.9167 16.1115 22.9167ZM25.8338 16.1111H27.7782V13.1944H25.8338V16.1111ZM16.1115 22.9167C15.5768 22.9167 15.1191 22.9167 14.7383 22.9167C14.3575 22.9167 14.1671 22.9167 14.1671 22.9167H23.8893C23.8893 22.9167 23.6989 22.9167 23.3181 22.9167C22.9374 22.9167 22.4796 22.9167 21.9449 22.9167H16.1115Z" fill="#F97316"/>
</svg>
