<svg width="18" height="18" viewBox="0 0 18 18" fill="none" xmlns="http://www.w3.org/2000/svg">
<path d="M5.11111 13.8611C5.38657 13.8611 5.61748 13.7679 5.80382 13.5816C5.99016 13.3953 6.08333 13.1644 6.08333 12.8889C6.08333 12.6134 5.99016 12.3825 5.80382 12.1962C5.61748 12.0098 5.38657 11.9167 5.11111 11.9167C4.83565 11.9167 4.60475 12.0098 4.4184 12.1962C4.23206 12.3825 4.13889 12.6134 4.13889 12.8889C4.13889 13.1644 4.23206 13.3953 4.4184 13.5816C4.60475 13.7679 4.83565 13.8611 5.11111 13.8611ZM5.11111 9.97222C5.38657 9.97222 5.61748 9.87905 5.80382 9.69271C5.99016 9.50637 6.08333 9.27546 6.08333 9C6.08333 8.72454 5.99016 8.49363 5.80382 8.30729C5.61748 8.12095 5.38657 8.02778 5.11111 8.02778C4.83565 8.02778 4.60475 8.12095 4.4184 8.30729C4.23206 8.49363 4.13889 8.72454 4.13889 9C4.13889 9.27546 4.23206 9.50637 4.4184 9.69271C4.60475 9.87905 4.83565 9.97222 5.11111 9.97222ZM5.11111 6.08333C5.38657 6.08333 5.61748 5.99016 5.80382 5.80382C5.99016 5.61748 6.08333 5.38657 6.08333 5.11111C6.08333 4.83565 5.99016 4.60475 5.80382 4.4184C5.61748 4.23206 5.38657 4.13889 5.11111 4.13889C4.83565 4.13889 4.60475 4.23206 4.4184 4.4184C4.23206 4.60475 4.13889 4.83565 4.13889 5.11111C4.13889 5.38657 4.23206 5.61748 4.4184 5.80382C4.60475 5.99016 4.83565 6.08333 5.11111 6.08333ZM8.02778 13.8611H13.8611V11.9167H8.02778V13.8611ZM8.02778 9.97222H13.8611V8.02778H8.02778V9.97222ZM8.02778 6.08333H13.8611V4.13889H8.02778V6.08333ZM2.19444 17.75C1.65972 17.75 1.20197 17.5596 0.821181 17.1788C0.440394 16.798 0.25 16.3403 0.25 15.8056V2.19444C0.25 1.65972 0.440394 1.20197 0.821181 0.82118C1.20197 0.440393 1.65972 0.25 2.19444 0.25H15.8056C16.3403 0.25 16.798 0.440393 17.1788 0.82118C17.5596 1.20197 17.75 1.65972 17.75 2.19444V15.8056C17.75 16.3403 17.5596 16.798 17.1788 17.1788C16.798 17.5596 16.3403 17.75 15.8056 17.75H2.19444ZM2.19444 15.8056H15.8056V2.19444H2.19444V15.8056Z" fill="#64748B"/>
</svg>
