<svg width="40" height="40" viewBox="0 0 40 40" fill="none" xmlns="http://www.w3.org/2000/svg">
<rect width="40" height="40" rx="20" fill="#3B82F6" fill-opacity="0.1"/>
<path d="M12.2228 27.7778C11.688 27.7778 11.2303 27.5874 10.8495 27.2067C10.4687 26.8259 10.2783 26.3681 10.2783 25.8334V14.1667C10.2783 13.632 10.4687 13.1742 10.8495 12.7935C11.2303 12.4127 11.688 12.2223 12.2228 12.2223H22.0422C21.9774 12.5464 21.945 12.8704 21.945 13.1945C21.945 13.5186 21.9774 13.8426 22.0422 14.1667H12.2228L20.0005 19.0278L23.5492 16.816C23.776 17.0267 24.0231 17.209 24.2905 17.3629C24.5578 17.5168 24.8373 17.6505 25.129 17.7639L20.0005 20.9723L12.2228 16.1112V25.8334H27.7783V17.9584C28.151 17.8774 28.4994 17.7639 28.8235 17.6181C29.1475 17.4723 29.4473 17.294 29.7228 17.0834V25.8334C29.7228 26.3681 29.5324 26.8259 29.1516 27.2067C28.7708 27.5874 28.313 27.7778 27.7783 27.7778H12.2228ZM26.8061 16.1112C25.9959 16.1112 25.3073 15.8276 24.7401 15.2605C24.173 14.6933 23.8894 14.0047 23.8894 13.1945C23.8894 12.3843 24.173 11.6957 24.7401 11.1285C25.3073 10.5614 25.9959 10.2778 26.8061 10.2778C27.6163 10.2778 28.3049 10.5614 28.8721 11.1285C29.4392 11.6957 29.7228 12.3843 29.7228 13.1945C29.7228 14.0047 29.4392 14.6933 28.8721 15.2605C28.3049 15.8276 27.6163 16.1112 26.8061 16.1112Z" fill="#3B82F6"/>
</svg>
