<svg width="40" height="40" viewBox="0 0 40 40" fill="none" xmlns="http://www.w3.org/2000/svg">
<rect width="40" height="40" rx="20" fill="#6B7280" fill-opacity="0.1"/>
<path d="M14.1671 21.9443C13.6324 21.9443 13.1746 21.7539 12.7938 21.3732C12.413 20.9924 12.2227 20.5346 12.2227 19.9999C12.2227 19.4652 12.413 19.0074 12.7938 18.6266C13.1746 18.2458 13.6324 18.0554 14.1671 18.0554C14.7018 18.0554 15.1596 18.2458 15.5404 18.6266C15.9212 19.0074 16.1115 19.4652 16.1115 19.9999C16.1115 20.5346 15.9212 20.9924 15.5404 21.3732C15.1596 21.7539 14.7018 21.9443 14.1671 21.9443ZM20.0004 21.9443C19.4657 21.9443 19.008 21.7539 18.6272 21.3732C18.2464 20.9924 18.056 20.5346 18.056 19.9999C18.056 19.4652 18.2464 19.0074 18.6272 18.6266C19.008 18.2458 19.4657 18.0554 20.0004 18.0554C20.5352 18.0554 20.9929 18.2458 21.3737 18.6266C21.7545 19.0074 21.9449 19.4652 21.9449 19.9999C21.9449 20.5346 21.7545 20.9924 21.3737 21.3732C20.9929 21.7539 20.5352 21.9443 20.0004 21.9443ZM25.8338 21.9443C25.299 21.9443 24.8413 21.7539 24.4605 21.3732C24.0797 20.9924 23.8893 20.5346 23.8893 19.9999C23.8893 19.4652 24.0797 19.0074 24.4605 18.6266C24.8413 18.2458 25.299 18.0554 25.8338 18.0554C26.3685 18.0554 26.8262 18.2458 27.207 18.6266C27.5878 19.0074 27.7782 19.4652 27.7782 19.9999C27.7782 20.5346 27.5878 20.9924 27.207 21.3732C26.8262 21.7539 26.3685 21.9443 25.8338 21.9443Z" fill="#6B7280"/>
</svg>
