<svg width="20" height="22" viewBox="0 0 20 22" fill="none" xmlns="http://www.w3.org/2000/svg">
<path d="M2.41667 18.7292H6.04167V12.6875C6.04167 12.3451 6.15767 12.0584 6.38967 11.8272C6.62167 11.596 6.90844 11.48 7.25 11.4792H12.0833C12.4257 11.4792 12.7129 11.5952 12.9449 11.8272C13.1769 12.0592 13.2925 12.3459 13.2917 12.6875V18.7292H16.9167V7.85417L9.66667 2.41667L2.41667 7.85417V18.7292ZM0 18.7292V7.85417C0 7.47153 0.0857914 7.10903 0.257375 6.76667C0.428958 6.42431 0.665389 6.14236 0.966667 5.92083L8.21667 0.483333C8.63958 0.161111 9.12292 0 9.66667 0C10.2104 0 10.6937 0.161111 11.1167 0.483333L18.3667 5.92083C18.6687 6.14236 18.9056 6.42431 19.0772 6.76667C19.2487 7.10903 19.3341 7.47153 19.3333 7.85417V18.7292C19.3333 19.3938 19.0965 19.9629 18.6228 20.4365C18.1492 20.9102 17.5804 21.1466 16.9167 21.1458H12.0833C11.741 21.1458 11.4542 21.0298 11.223 20.7978C10.9918 20.5658 10.8758 20.2791 10.875 19.9375V13.8958H8.45833V19.9375C8.45833 20.2799 8.34233 20.567 8.11033 20.799C7.87833 21.031 7.59155 21.1466 7.25 21.1458H2.41667C1.75208 21.1458 1.18336 20.9094 0.7105 20.4365C0.237639 19.9637 0.000805555 19.3946 0 18.7292Z" fill="#64748B"/>
</svg>
